<?xml version="1.0"?>
<svg xmlns="http://www.w3.org/2000/svg" xmlns:xlink="http://www.w3.org/1999/xlink" xmlns:svgjs="http://svgjs.com/svgjs" version="1.1" width="512" height="512" x="0" y="0" viewBox="0 0 28.808 28.808" style="enable-background:new 0 0 512 512" xml:space="preserve" class=""><g>
<g xmlns="http://www.w3.org/2000/svg">
	<path style="" d="M21.473,6.081c1.105,0,2-0.889,2-1.994V1.998c0-1.106-0.895-1.998-2-1.998   c-1.104,0-1.996,0.892-1.996,1.998v2.089C19.477,5.192,20.369,6.081,21.473,6.081z" fill="#2a41e8" data-original="#030104" class=""/>
	<path style="" d="M28.572,3.457h-4.021v1.017c0,1.676-1.363,3.043-3.043,3.043c-1.682,0-3.041-1.367-3.041-3.043   V3.457H10.35v1.017c0,1.676-1.363,3.043-3.043,3.043S4.266,6.149,4.266,4.473V3.457L0.207,3.406v25.402h2.029h24.34l2.025-0.006   L28.572,3.457z M26.576,26.785H2.236V10.557h24.34V26.785z" fill="#2a41e8" data-original="#030104" class=""/>
	<path style="" d="M7.275,6.081c1.105,0,1.998-0.889,1.998-1.994V1.998C9.273,0.892,8.381,0,7.275,0   C6.172,0,5.279,0.892,5.279,1.998v2.089C5.279,5.192,6.172,6.081,7.275,6.081z" fill="#2a41e8" data-original="#030104" class=""/>
	<rect x="10.357" y="12.735" style="" width="3.195" height="2.821" fill="#2a41e8" data-original="#030104" class=""/>
	<rect x="15.525" y="12.735" style="" width="3.199" height="2.821" fill="#2a41e8" data-original="#030104" class=""/>
	<rect x="20.318" y="12.735" style="" width="3.195" height="2.821" fill="#2a41e8" data-original="#030104" class=""/>
	<rect x="10.357" y="17.42" style="" width="3.195" height="2.819" fill="#2a41e8" data-original="#030104" class=""/>
	<rect x="15.525" y="17.42" style="" width="3.199" height="2.819" fill="#2a41e8" data-original="#030104" class=""/>
	<rect x="20.318" y="17.42" style="" width="3.195" height="2.819" fill="#2a41e8" data-original="#030104" class=""/>
	<rect x="10.357" y="22.198" style="" width="3.195" height="2.819" fill="#2a41e8" data-original="#030104" class=""/>
	<rect x="5.279" y="17.42" style="" width="3.193" height="2.819" fill="#2a41e8" data-original="#030104" class=""/>
	<rect x="5.279" y="22.198" style="" width="3.193" height="2.819" fill="#2a41e8" data-original="#030104" class=""/>
	<rect x="15.525" y="22.198" style="" width="3.199" height="2.819" fill="#2a41e8" data-original="#030104" class=""/>
	<rect x="20.318" y="22.198" style="" width="3.195" height="2.819" fill="#2a41e8" data-original="#030104" class=""/>
</g>
<g xmlns="http://www.w3.org/2000/svg">
</g>
<g xmlns="http://www.w3.org/2000/svg">
</g>
<g xmlns="http://www.w3.org/2000/svg">
</g>
<g xmlns="http://www.w3.org/2000/svg">
</g>
<g xmlns="http://www.w3.org/2000/svg">
</g>
<g xmlns="http://www.w3.org/2000/svg">
</g>
<g xmlns="http://www.w3.org/2000/svg">
</g>
<g xmlns="http://www.w3.org/2000/svg">
</g>
<g xmlns="http://www.w3.org/2000/svg">
</g>
<g xmlns="http://www.w3.org/2000/svg">
</g>
<g xmlns="http://www.w3.org/2000/svg">
</g>
<g xmlns="http://www.w3.org/2000/svg">
</g>
<g xmlns="http://www.w3.org/2000/svg">
</g>
<g xmlns="http://www.w3.org/2000/svg">
</g>
<g xmlns="http://www.w3.org/2000/svg">
</g>
</g></svg>
